<?xml version="1.0" standalone="no"?>
<!DOCTYPE svg PUBLIC "-//W3C//DTD SVG 20010904//EN"
 "http://www.w3.org/TR/2001/REC-SVG-20010904/DTD/svg10.dtd">
<svg version="1.0" xmlns="http://www.w3.org/2000/svg"
 width="500.000000pt" height="500.000000pt" viewBox="0 0 500.000000 500.000000"
 preserveAspectRatio="xMidYMid meet">

<g transform="translate(0.000000,500.000000) scale(0.100000,-0.100000)"
fill="#000000" stroke="none">
<path d="M0 2500 l0 -2500 2500 0 2500 0 0 2500 0 2500 -2500 0 -2500 0 0
-2500z m2660 1683 c89 -24 170 -73 247 -149 148 -145 204 -348 153 -548 -58
-228 -247 -402 -469 -432 l-51 -7 0 -406 0 -406 953 953 952 952 28 -27 27
-28 -972 -972 -973 -973 220 -220 220 -220 -28 -27 -27 -28 -200 200 -200 200
0 -683 0 -682 -40 0 -40 0 0 682 0 683 -200 -200 -200 -200 -27 28 -28 27 220
220 220 220 -973 973 -972 972 27 28 28 27 952 -952 953 -953 0 406 0 406 -51
7 c-118 16 -253 88 -334 179 -162 180 -199 424 -96 642 120 255 404 384 681
308z"/>
<path d="M2394 4114 c-186 -38 -344 -196 -383 -382 -46 -219 65 -451 261 -551
61 -30 172 -61 183 -50 3 3 4 229 3 501 l-3 495 -61 -13z"/>
<path d="M2540 3629 l0 -499 23 0 c82 0 209 64 291 147 283 285 129 770 -266
842 l-48 8 0 -498z"/>
</g>
</svg>
